PathFileType	4	(X/Y/Z)	s06c0302.trc
DataRate	CameraRate	NumFrames	NumMarkers	Units	OrigDataRate	OrigDataStartFrame	OrigNumFrames
200	200	6	48	mm	200	500	2000
Frame#	Time	racr			lacr			c7			jug			rlel			rdr			llel			ldr			s2			lic			ric			lasi			rasi			rpsi			lpsi			rgt			lgt			rth1			rth2			rth3			rth4			rlfc			rmfc			rsh1			rsh2			rsh3			rsh4			rlmal			rcal			rtoe			rmt5			lth1			lth2			lth4			lth3			llfc			lmfc			llmal			lcal			lmt5			lsh1			lsh2			lsh3			lsh4			ltoe			SBIKE			LBIKE			RBIKE			
		X1	Y1	Z1	X2	Y2	Z2	X3	Y3	Z3	X4	Y4	Z4	X5	Y5	Z5	X6	Y6	Z6	X7	Y7	Z7	X8	Y8	Z8	X9	Y9	Z9	X10	Y10	Z10	X11	Y11	Z11	X12	Y12	Z12	X13	Y13	Z13	X14	Y14	Z14	X15	Y15	Z15	X16	Y16	Z16	X17	Y17	Z17	X18	Y18	Z18	X19	Y19	Z19	X20	Y20	Z20	X21	Y21	Z21	X22	Y22	Z22	X23	Y23	Z23	X24	Y24	Z24	X25	Y25	Z25	X26	Y26	Z26	X27	Y27	Z27	X28	Y28	Z28	X29	Y29	Z29	X30	Y30	Z30	X31	Y31	Z31	X32	Y32	Z32	X33	Y33	Z33	X34	Y34	Z34	X35	Y35	Z35	X36	Y36	Z36	X37	Y37	Z37	X38	Y38	Z38	X39	Y39	Z39	X40	Y40	Z40	X41	Y41	Z41	X42	Y42	Z42	X43	Y43	Z43	X44	Y44	Z44	X45	Y45	Z45	X46	Y46	Z46	X47	Y47	Z47	X48	Y48	Z48	
500	2.5000	658.072293	1289.579627	-65.865417	648.798720	1285.455697	-376.072520	662.317912	1360.285634	-226.331694	635.366182	1198.451002	-221.621857	535.786028	1056.569279	35.716408	715.374792	931.941081	-47.298290	543.763802	1056.611206	-495.740614	716.093019	920.842799	-419.144121	108.856870	1172.871912	-264.269334	282.974401	1138.395299	-411.480729	239.660060	1114.567887	-86.348441	290.018951	1080.532719	-377.723788	265.191102	1070.072514	-124.679406	142.172753	1204.426850	-226.082353	145.518267	1209.170797	-285.450522	194.650763	1039.260703	-66.506964	251.987344	1079.967142	-451.156018	239.283203	919.541159	-32.543651	283.446203	840.147393	-24.662695	283.412972	753.406188	-31.828060	319.276721	850.526875	-33.255648	304.292317	648.299803	-39.915227	311.444940	620.574867	-147.603476	278.234916	526.268157	-18.019603	284.146135	440.429361	-36.172609	247.915543	362.150812	-45.173355	311.539094	440.191301	-66.812448	227.813666	283.332262	-54.906182	164.784641	272.212092	-105.075730	422.545127	170.305121	-93.627461	321.739611	183.253095	-26.731862	314.223075	984.176295	-461.146710	391.545335	945.206721	-451.932047	413.762807	971.072939	-437.282521	441.025555	870.883217	-448.231267	471.937194	769.668808	-421.415074	468.332772	760.202995	-305.455670	152.079105	588.364990	-385.865139	87.959969	629.473819	-338.843700	158.778170	440.849268	-398.438922	389.003811	699.526469	-433.665887	326.601227	645.940695	-404.316210	240.966904	622.691073	-399.380285	342.302318	632.342341	-371.258642	208.851433	373.472981	-336.042738	-202.435761	865.695255	-210.820148	-49.870283	79.645347	-410.825517	-49.440830	79.942025	-13.450243	
501	2.5050	659.170819	1290.041539	-67.420815	648.616534	1286.996011	-377.337558	662.315452	1360.983847	-227.722298	636.381849	1198.895620	-223.005933	537.157175	1057.025497	35.792228	716.939315	930.493386	-47.747101	544.763678	1057.241988	-496.119089	716.614319	920.846706	-419.072241	109.720872	1171.004533	-262.445822	282.910178	1138.673677	-410.733389	241.867585	1111.231264	-85.566205	290.944494	1080.698603	-377.006926	266.926362	1066.834221	-124.345628	142.671742	1201.971296	-223.879916	145.372737	1207.732413	-283.108583	195.467120	1035.480605	-66.489748	253.139603	1081.010884	-450.159102	238.499834	915.861024	-32.216602	281.939818	835.662412	-24.363157	280.562893	749.048827	-32.103216	317.313099	845.714268	-32.769666	300.288689	643.897706	-39.908971	307.977246	616.051961	-147.132686	274.108311	522.075003	-17.867812	279.644457	436.208850	-35.851708	243.074760	357.986451	-44.751029	306.489125	435.869455	-66.666708	222.788912	279.373963	-54.489042	159.625929	269.520646	-104.550342	415.752786	163.099844	-93.802461	315.175237	177.771172	-26.680049	316.629006	986.741330	-461.681875	394.647649	949.171770	-453.168056	416.466963	975.265638	-438.148826	445.531090	875.587518	-450.000199	477.100750	774.923834	-423.368979	474.053100	765.036793	-307.525610	156.863751	593.850413	-386.444338	92.153236	633.989122	-339.060672	166.284116	446.849974	-398.797470	393.977929	705.171010	-435.297914	331.726707	651.958278	-405.942759	245.873362	628.813034	-400.479581	346.830102	637.302049	-372.802773	217.398865	380.185592	-336.195773	-202.337209	865.812972	-210.905767	-49.802298	79.583097	-410.866881	-49.429881	79.926662	-13.456727	
502	2.5100	660.211217	1290.542230	-68.968170	648.560718	1288.461069	-378.572659	662.358048	1361.737826	-229.019150	637.333668	1199.168895	-224.265953	538.744963	1057.589048	35.835330	717.911749	929.394291	-48.115389	545.793050	1058.114643	-496.863275	717.293637	921.102429	-419.283040	110.983356	1168.807374	-260.951936	282.853596	1139.149927	-409.962469	244.165160	1108.354294	-84.598874	291.665927	1081.038767	-375.958712	269.225397	1064.092513	-123.556875	144.003807	1199.270686	-222.305540	147.185405	1205.210607	-282.793231	196.348140	1031.946125	-66.578975	254.186685	1082.317175	-449.044912	237.682364	912.439076	-32.086176	279.891147	831.710268	-24.273059	277.471155	745.119374	-32.074286	315.375486	841.180296	-32.438239	296.372601	640.103688	-39.796403	304.210425	612.132295	-146.784579	269.771636	518.156433	-17.789202	275.003575	432.096542	-35.654687	238.145316	354.163021	-44.392632	301.687501	431.873254	-66.605411	217.393775	275.733111	-54.107521	154.195170	266.859594	-104.135611	408.604483	156.392044	-93.876243	308.367851	172.594607	-26.637187	318.740009	989.588977	-462.292886	397.552003	953.338744	-454.216661	418.969418	979.585657	-438.871383	449.537139	880.559621	-452.070169	482.022727	780.346406	-425.190899	479.617322	770.147149	-309.325584	161.971088	598.921382	-386.894469	96.407284	638.125371	-339.214411	173.845089	452.362644	-399.084062	398.885467	710.844513	-436.783217	336.640763	657.778118	-407.227192	250.797745	634.650147	-401.524887	352.354663	643.205955	-374.653449	225.949649	386.579031	-336.413415	-202.255944	865.687910	-211.043455	-49.748361	79.516723	-410.880870	-49.383187	79.904969	-13.498864	
503	2.5150	661.202739	1291.034383	-70.538691	648.622981	1289.808813	-379.939845	662.488821	1362.503128	-230.390633	638.378719	1199.738904	-225.779156	540.494879	1058.180051	35.889164	718.073003	928.890614	-48.033134	546.906946	1058.857940	-497.663714	717.703167	921.371989	-419.465603	112.408115	1168.026372	-259.097287	282.727174	1139.851498	-409.157715	246.605492	1105.773812	-83.585641	292.402222	1081.699537	-374.953520	271.220633	1061.792791	-123.165991	144.615779	1198.248965	-219.684929	147.402627	1204.257695	-280.666782	197.340115	1028.877513	-66.687471	255.021674	1083.945506	-447.713609	236.613202	909.514935	-32.200586	277.784936	828.096290	-24.329384	273.887048	741.551358	-32.369585	313.417086	836.947575	-32.515374	291.773531	636.423199	-39.952736	299.942994	608.487467	-146.610320	265.128485	514.523034	-17.613378	270.041570	428.567819	-35.532673	232.928404	350.744613	-44.175451	296.106837	428.191668	-66.360829	211.702271	272.492116	-53.751406	148.383724	264.873750	-103.798067	401.128581	150.248376	-93.863483	301.185194	167.967005	-26.585607	320.555727	992.773357	-462.903726	400.064974	957.725196	-455.223814	420.918575	984.035782	-439.512369	453.048981	885.716275	-454.321531	486.656992	785.855201	-426.823288	484.979901	775.472393	-310.852139	167.258977	603.487400	-387.171767	100.871697	641.796034	-339.093878	181.420125	457.391665	-399.081235	403.702778	716.564316	-438.043885	341.548151	663.390206	-408.414855	255.745392	640.260238	-402.447589	357.344489	648.487921	-376.060799	234.820535	392.605685	-336.499004	-202.254662	865.643358	-211.043088	-49.695954	79.521650	-410.887046	-49.341758	79.885267	-13.496113	
504	2.5200	662.105939	1291.725471	-72.029329	648.980428	1291.345936	-382.391002	662.720166	1363.268991	-231.719178	639.466552	1200.278773	-227.351005	542.449453	1058.972966	35.895903	718.226961	928.330808	-48.098024	547.770525	1059.578614	-498.456147	718.006161	921.778414	-419.717673	112.306594	1166.123279	-256.407204	282.656675	1140.539068	-408.169836	249.045638	1103.770726	-82.428581	293.083738	1082.659009	-373.900762	273.169942	1059.941051	-122.501537	145.031400	1197.330225	-217.116635	147.800627	1203.552191	-278.280050	198.068550	1026.372657	-66.433666	255.598827	1085.947122	-446.334995	235.939435	907.017162	-31.976350	275.436413	824.941112	-24.505420	270.414610	738.360183	-32.741674	311.377169	833.359516	-32.675494	286.733519	633.195558	-40.267792	295.031392	604.964587	-146.782964	259.924799	511.544206	-17.667890	264.568656	425.564932	-35.552397	227.281517	347.664427	-44.030515	290.445120	424.676746	-66.812297	205.693219	269.837024	-53.566154	142.507556	263.280586	-103.375781	393.414476	144.376029	-93.875596	293.727042	163.762035	-26.500216	321.981583	996.146683	-463.510367	401.946673	962.198132	-456.117544	422.467722	988.561485	-439.864598	455.967601	890.808489	-456.158875	491.007194	791.442453	-428.261661	490.071153	780.936478	-312.218492	172.611252	607.757023	-387.306278	105.397000	644.920138	-339.050165	189.284592	462.229895	-399.200426	408.518547	722.765955	-439.810510	346.420362	668.820290	-409.434743	260.664222	645.683114	-403.270686	362.438025	654.105248	-377.129772	244.598108	399.109798	-337.217450	-202.285830	865.642279	-210.945435	-49.688564	79.535401	-410.844131	-49.287909	79.877647	-13.479550	
505	2.5250	663.009849	1292.546218	-73.553971	649.448684	1292.436201	-383.797252	663.119878	1364.118371	-233.081552	640.495187	1200.774800	-228.625681	544.559370	1059.875961	35.935743	718.410874	927.773189	-48.020482	548.398138	1060.226593	-499.242826	718.180597	922.215211	-420.001853	114.028715	1164.115318	-254.794795	282.410848	1141.582320	-407.280766	250.892279	1102.261821	-81.267517	293.557044	1083.993692	-372.683822	274.955836	1058.636283	-121.624131	146.217471	1196.266073	-214.838038	148.193616	1203.218744	-275.751004	198.891535	1024.310632	-66.147810	255.766007	1088.336292	-444.874494	235.500148	905.044608	-31.571555	272.588754	822.155982	-25.136943	266.550563	735.740123	-33.190723	308.179477	829.519984	-34.026667	281.305746	630.528328	-40.859325	289.449082	602.194934	-147.153845	254.549530	509.056990	-17.784837	258.843052	422.971889	-35.530932	221.312374	345.228920	-43.894968	284.693345	421.880501	-66.882176	199.637946	267.525885	-53.417812	136.316507	262.428114	-102.956422	385.503158	138.899366	-93.915418	286.212117	159.937291	-26.444065	322.934901	999.707834	-463.971627	403.306170	966.753809	-456.840038	423.334146	993.030923	-440.102196	458.302530	896.245665	-458.403778	494.997993	797.089165	-429.507369	495.220537	785.686056	-314.371365	177.942166	611.549216	-387.376317	110.112080	647.623566	-338.864910	197.325742	466.629953	-399.268945	413.016770	728.365651	-440.669360	351.192905	674.133786	-410.294163	265.554121	650.601714	-403.824916	367.498538	659.167130	-378.201205	253.757399	404.370226	-337.170515	-202.370521	865.636173	-210.838068	-49.693534	79.553087	-410.847013	-49.187560	79.449023	-13.846328	
